<?xml version="1.0" encoding="UTF-8" standalone="no"?>
<svg
   xmlns:dc="http://purl.org/dc/elements/1.1/"
   xmlns:cc="http://creativecommons.org/ns#"
   xmlns:rdf="http://www.w3.org/1999/02/22-rdf-syntax-ns#"
   xmlns:svg="http://www.w3.org/2000/svg"
   xmlns="http://www.w3.org/2000/svg"
   height="83.969421"
   width="94.018501"
   id="svg10"
   viewBox="0 0 94.018501 83.969421"
   y="0px"
   x="0px"
   version="1.1">
  <metadata
     id="metadata16">
    <rdf:RDF>
      <cc:Work
         rdf:about="">
        <dc:format>image/svg+xml</dc:format>
        <dc:type
           rdf:resource="http://purl.org/dc/dcmitype/StillImage" />
        <dc:title></dc:title>
      </cc:Work>
    </rdf:RDF>
  </metadata>
  <defs
     id="defs14" />
  <g
     id="g4"
     transform="translate(-2.9907486,-960.37746)">
    <path
       id="path2"
       overflow="visible"
       display="inline"
       visibility="visible"
       marker="none"
       d="m 27.185474,960.37746 c -6.2088,0 -12.4092,2.47098 -17.125,7.40625 -9.43169971,9.87036 -9.42089971,25.71552 0,35.59369 l 38.4688,40.3438 a 2.0002,2.0002 0 0 0 2.9062,0 c 12.8352,-13.4323 25.664702,-26.8799 38.500002,-40.3125 9.4317,-9.87053 9.4317,-25.72322 0,-35.59374 -9.4316,-9.87051 -24.849502,-9.87073 -34.281202,0 l -5.6563,5.90625 -5.6562,-5.9375 c -4.7159,-4.93526 -10.9475,-7.40625 -17.1563,-7.40625 z m 0,3.9375 c 5.1332,0 10.2749,2.05874 14.25,6.21875 l 7.125,7.46875 a 2.0002,2.0002 0 0 0 2.9063,0 l 7.0937,-7.40625 c 7.9502,-8.32019 20.518702,-8.32001 28.468802,0 7.95,8.32 7.95,21.74248 0,30.06249 -12.3468,12.9213 -24.684602,25.8602 -37.031302,38.7813 l -37.0312,-38.8125 c -7.9441997,-8.32981 -7.9500997,-21.77397 0,-30.09379 3.975,-4.16 9.0855,-6.21875 14.2187,-6.21875 z"
       style="color:#FF4F4F;text-indent:0;text-transform:none;direction:ltr;baseline-shift:baseline;display:inline;overflow:visible;visibility:visible;fill:#FF4F4F;fill-opacity:1;stroke:none;enable-background:accumulate" />
  </g>
</svg>
