<?xml version="1.0" encoding="UTF-8" standalone="no"?>
<svg
   xmlns:dc="http://purl.org/dc/elements/1.1/"
   xmlns:cc="http://creativecommons.org/ns#"
   xmlns:rdf="http://www.w3.org/1999/02/22-rdf-syntax-ns#"
   xmlns:svg="http://www.w3.org/2000/svg"
   xmlns="http://www.w3.org/2000/svg"
   version="1.1"
   x="0px"
   y="0px"
   viewBox="0 0 89.128242 84.052399"
   id="svg10"
   width="89.128242"
   height="84.052399">
  <metadata
     id="metadata16">
    <rdf:RDF>
      <cc:Work
         rdf:about="">
        <dc:format>image/svg+xml</dc:format>
        <dc:type
           rdf:resource="http://purl.org/dc/dcmitype/StillImage" />
        <dc:title></dc:title>
      </cc:Work>
    </rdf:RDF>
  </metadata>
  <defs
     id="defs14" />
  <g
     transform="matrix(-1,0,0,1,94.56412,-960.33599)"
     id="g4">
    <path
       d="m 41.68588,969.16092 c -0.416,10.9671 -1.7154,17.3912 -8.0938,26.87497 -1.0853,-1.0544 -2.5516,-1.71867 -4.1562,-1.71867 l -18,0 c -3.2720998,0 -6.0000001,2.72787 -6.0000001,5.99998 l 0,36 c 0,3.2721 2.7279003,6 6.0000001,6 l 18,0 c 1.6832,0 3.2146,-0.7285 4.3125,-1.875 0.7822,0.6198 1.5111,1.1893 2.3437,1.6875 1.7697,1.0588 3.833,1.6958 6.4688,1.9688 5.2716,0.5459 13.5751,0.1378 32.875,0.2187 0.689,-10e-4 1.3751,-0.2486 1.9062,-0.6875 3.8186,-3.1149 5.6944,-6.3191 6.5626,-9.7187 0.3336,-0.1814 0.6323,-0.4267 0.875,-0.7188 2.8957,-3.6191 4.0635,-7.7965 3.5624,-11.5625 0.1604,-0.1302 0.3073,-0.2771 0.4376,-0.4375 3.3582,-4.1972 4.4225,-9.1629 3.2187,-13.3437 1.9694,-2.5561 2.82,-5.5569 2.5,-8.34381 -0.3925,-3.4179 -2.5794,-6.49767 -5.875,-7.93747 -0.3734,-0.1628 -0.7802,-0.2484 -1.1875,-0.25 l -24.625,0 c 1.3177,-9.84 0.3119,-18.8614 -3.1562,-24.9687 -1.9651,-3.4602 -4.9642,-5.4889 -7.9688,-5.9375 -5.3965,-0.6625 -9.4828,3.1287 -10,8.7499 z m 12.75,0.1563 c 2.7324,4.8116 4.0105,14.2761 2.0625,24.4375 -0.3291,1.72517 1.1813,3.55687 2.9375,3.56247 l 27.125,0 c 1.1207,0.6265 1.8207,1.5863 1.9688,2.87501 0.1386,1.208 -0.3832,2.6647 -1.5938,4.125 l -10.5,0 c -1.5851,0 -3.0427,1.4149 -3.0427,3 0,1.5851 1.4578,3.0224 3.0427,3 l 9.9375,0 c 0.228,1.6975 -0.1913,3.8328 -1.5625,6 l -8.375,0 c -1.5851,0 -3.0427,1.4149 -3.0427,3 0,1.5851 1.4578,3.0224 3.0427,3 l 5.9375,0 c 0.228,1.6975 -0.1913,3.8328 -1.5625,6 l -4.375,0 c -1.5851,0 -3.0427,1.4149 -3.0427,3 0,1.5851 1.4578,3.0224 3.0427,3 l 1.0312,0 c -0.6145,1.3232 -1.59,2.495 -3.3124,4 -18.2083,-0.056 -26.8869,0.2385 -31,-0.1875 -2.1189,-0.2194 -2.955,-0.5309 -4,-1.1562 -0.8699,-0.5205 -2.0709,-1.5158 -3.7188,-2.8438 l 0,-30.4062 c 9.3846,-12.54608 11.7516,-21.32108 12.25,-34.28128 0.9377,-5.1659 5.415,-3.0231 6.75,-0.125 z m -43,30.99998 18,0 c -0.068,11.9188 0,23.9875 0,36 l -18,0 z"
       style="color:#000000;text-indent:0;text-transform:none;direction:ltr;baseline-shift:baseline;display:inline;overflow:visible;visibility:visible;fill:#000000;fill-opacity:1;stroke:none;marker:none;enable-background:accumulate"
       visibility="visible"
       display="inline"
       overflow="visible"
       id="path2" />
  </g>
</svg>
