<?xml version="1.0" encoding="UTF-8" standalone="no"?>
<svg
   xmlns:dc="http://purl.org/dc/elements/1.1/"
   xmlns:cc="http://creativecommons.org/ns#"
   xmlns:rdf="http://www.w3.org/1999/02/22-rdf-syntax-ns#"
   xmlns:svg="http://www.w3.org/2000/svg"
   xmlns="http://www.w3.org/2000/svg"
   height="112"
   width="128"
   id="svg8"
   y="0px"
   x="0px"
   viewBox="0 0 128 112"
   data-container-transform="translate(0 8)"
   data-icon="heart"
   version="1.1">
  <metadata
     id="metadata14">
    <rdf:RDF>
      <cc:Work
         rdf:about="">
        <dc:format>image/svg+xml</dc:format>
        <dc:type
           rdf:resource="http://purl.org/dc/dcmitype/StillImage" />
        <dc:title></dc:title>
      </cc:Work>
    </rdf:RDF>
  </metadata>
  <defs
     id="defs12" />
  <path
     id="path2"
     fill="#FF4F4F"
     d="M 34,0 C 24.6,0 16.1,3.8 10,10 3.8,16.1 0,24.6 0,34 0,43.4 3.8,51.9 10,58 l 54,54 54,-54 c 6.2,-6.2 10,-14.7 10,-24 0,-9.4 -3.8,-17.9 -10,-24 C 111.8,3.8 103.3,0 94,0 84.6,0 76.1,3.8 70,10 67.6,12.4 65.6,15.1 64,18 62.4,15 60.4,12.3 58,10 51.9,3.8 43.4,0 34,0 Z" />
</svg>
